<svg xmlns="http://www.w3.org/2000/svg" viewBox="0 0 64 64" fill="none" aria-hidden="true">
  <path d="M35.7 7.5 38.4 15a18.8 18.8 0 0 1 5.1 2.1l7.3-3.2 5.2 9-6.2 4.8c.2 1.4.3 2.8.3 4.3s-.1 2.9-.3 4.3l6.2 4.8-5.2 9-7.3-3.2a18.8 18.8 0 0 1-5.1 2.1l-2.7 7.5H28.3L25.6 49a18.8 18.8 0 0 1-5.1-2.1l-7.3 3.2-5.2-9 6.2-4.8A27 27 0 0 1 14 32c0-1.5.1-2.9.3-4.3L8 22.9l5.2-9 7.3 3.2a18.8 18.8 0 0 1 5.1-2.1l2.7-7.5h7.4Z" stroke="#21d9e8" stroke-width="4.8" stroke-linejoin="round"/>
  <circle cx="32" cy="32" r="9.5" stroke="#21d9e8" stroke-width="4.8"/>
</svg>
